<svg xmlns="http://www.w3.org/2000/svg" width="190" height="50" viewBox="0 0 190 50">
    <defs>
        <style>
            .cls-1{fill:#f4364c}
        </style>
    </defs>
    <g id="Alternatif_Logo_RGB" data-name="Alternatif Logo RGB" transform="translate(-485 -415.012)">
        <g id="Group_2889" data-name="Group 2889" transform="translate(485 415.012)">
            <path id="Path_16841" data-name="Path 16841" class="cls-1" d="M491.562 478.2a.9.9 0 0 0-.9-.9H485.9a.9.9 0 0 0 0 1.8h4.761a.9.9 0 0 0 .901-.9z" transform="translate(-485 -464.841)"/>
            <path id="Path_16842" data-name="Path 16842" class="cls-1" d="M511.8 496.2a.9.9 0 0 0 .9.9h2.2a.9.9 0 1 0 0-1.8h-2.2a.9.9 0 0 0-.9.9z" transform="translate(-506.438 -479.241)"/>
            <path id="Path_16843" data-name="Path 16843" class="cls-1" d="m523.429 437.852-22.187-22.182a2.239 2.239 0 0 0-3.821 1.58 7.574 7.574 0 0 0 .52 2.74l1.5 3.88H495.5a.9.9 0 1 0 0 1.8h11a.9.9 0 1 1 0 1.8h-5.662l2.1 5.4h5.862a.9.9 0 1 1 0 1.8h-15a.9.9 0 1 0 0 1.8h10.523l1.36 3.52-7.742 19.982a7.8 7.8 0 0 0-.52 2.7 4.666 4.666 0 0 1 2.021-3.76l23.887-16.642.1-.1a3.042 3.042 0 0 0 0-4.318z" transform="translate(-491.319 -415.012)"/>
        </g>
        <path id="Path_16844" data-name="Path 16844" d="m519.321 573.387 22.087-22.087-23.887 16.665a4.667 4.667 0 0 0-2.021 3.761v.08a2.239 2.239 0 0 0 3.821 1.581z" transform="translate(-24.398 -109.032)" style="fill:#cb333b"/>
        <g id="Group_2890" data-name="Group 2890" transform="translate(524.933 427.509)">
            <path id="Path_16845" data-name="Path 16845" d="M685.57 502.507c-.48 0-.7-.3-.52-.76l9.043-23.727a.741.741 0 0 1 .76-.52h4.5a.712.712 0 0 1 .76.52l9.043 23.727c.18.46-.04.76-.52.76h-3.681a.7.7 0 0 1-.74-.54l-1.5-4.061a.713.713 0 0 0-.74-.54h-9.743a.713.713 0 0 0-.74.54l-1.52 4.061a.728.728 0 0 1-.74.54zm14.7-9.223c.48 0 .68-.3.54-.76l-3.281-8.883c-.22-.58-.66-.58-.86 0l-3.261 8.883c-.14.46.04.76.52.76z" transform="translate(-684.988 -477.5)"/>
            <path id="Path_16846" data-name="Path 16846" d="M816.36 502.507a.584.584 0 0 1-.66-.66V478.16a.584.584 0 0 1 .66-.66h3.3a.584.584 0 0 1 .66.66v23.667a.584.584 0 0 1-.66.66h-3.3z" transform="translate(-789.55 -477.5)"/>
            <path id="Path_16847" data-name="Path 16847" d="M857.583 514.667c-3.5 0-5.582-1.941-5.582-5.362v-7.942a.583.583 0 0 0-.66-.66h-1.38a.583.583 0 0 1-.66-.66v-1.9a.584.584 0 0 1 .66-.66h1.38a.583.583 0 0 0 .66-.66v-3.463a.584.584 0 0 1 .66-.66h3.321a.584.584 0 0 1 .66.66v3.421a.584.584 0 0 0 .66.66h2.581a.584.584 0 0 1 .66.66V500a.584.584 0 0 1-.66.66H857.3a.584.584 0 0 0-.66.66v7.422c0 1.52.82 2.321 2.1 2.321h1.1a.584.584 0 0 1 .66.66v2.221a.584.584 0 0 1-.66.66h-2.261z" transform="translate(-816.428 -489.659)"/>
            <path id="Path_16848" data-name="Path 16848" d="M918.554 529.778a8.387 8.387 0 0 1-3.3-3.221 9.031 9.031 0 0 1-1.16-4.5 8.862 8.862 0 0 1 9.123-8.963 8.7 8.7 0 0 1 6.282 2.4 8.453 8.453 0 0 1 2.561 6.262l-.02.36a.609.609 0 0 1-.68.64h-12.046c-.44 0-.72.28-.6.72a4.419 4.419 0 0 0 1.6 2.761 5.021 5.021 0 0 0 6.962-.82.713.713 0 0 1 .9-.3l2.461 1.04c.44.2.56.48.36.82a8.557 8.557 0 0 1-7.642 4 9.664 9.664 0 0 1-4.801-1.199zm8.282-9.823c.48 0 .74-.3.56-.74a4.189 4.189 0 0 0-4.1-2.7 4.449 4.449 0 0 0-4.241 2.661c-.2.46.08.78.56.78z" transform="translate(-868.257 -505.971)"/>
            <path id="Path_16849" data-name="Path 16849" d="M1017.76 533.269a.584.584 0 0 1-.66-.66v-15.865a.584.584 0 0 1 .66-.66h3.081a.584.584 0 0 1 .66.66v1.34c0 .6.32.72.74.24a6.955 6.955 0 0 1 4.481-2.361.571.571 0 0 1 .72.62v3.061a.6.6 0 0 1-.66.66c-3.321.18-5.062 1.6-5.062 4.721v7.562a.584.584 0 0 1-.66.66h-3.3z" transform="translate(-950.658 -508.261)"/>
            <path id="Path_16850" data-name="Path 16850" d="M1079.76 532.425a.584.584 0 0 1-.66-.66V515.9a.584.584 0 0 1 .66-.66h3.321a.584.584 0 0 1 .66.66v.58c0 .58.32.7.74.24a5.927 5.927 0 0 1 4.461-1.821c3.721 0 5.942 2.361 5.942 6.6v10.263a.584.584 0 0 1-.66.66h-3.341a.584.584 0 0 1-.66-.66v-9.443c0-2.581-1.12-3.541-3.061-3.541-2.061 0-3.4 1.34-3.421 3.881v9.1a.584.584 0 0 1-.66.66z" transform="translate(-1000.254 -507.418)"/>
            <path id="Path_16851" data-name="Path 16851" d="M1175.2 529.345a8.488 8.488 0 0 1-3.041-3.241 9.675 9.675 0 0 1 1.32-11.063 8.2 8.2 0 0 1 5.842-2.541 7.078 7.078 0 0 1 4.941 1.781c.46.38.78.34.78-.18v-.5a.584.584 0 0 1 .66-.66h3.3a.584.584 0 0 1 .66.66v15.865a.584.584 0 0 1-.66.66h-3.321a.584.584 0 0 1-.66-.66v-.4c0-.56-.26-.78-.6-.46a7.144 7.144 0 0 1-5.1 1.881 7.593 7.593 0 0 1-4.121-1.142zm8.943-4.2a5.351 5.351 0 0 0 0-7.262 5.152 5.152 0 0 0-7.062 0 4.823 4.823 0 0 0-1.42 3.621 4.945 4.945 0 0 0 1.42 3.641 4.81 4.81 0 0 0 3.541 1.42 4.861 4.861 0 0 0 3.522-1.421z" transform="translate(-1073.769 -505.498)"/>
            <path id="Path_16852" data-name="Path 16852" d="M1283.182 514.667c-3.5 0-5.582-1.941-5.582-5.362v-7.942a.584.584 0 0 0-.66-.66h-1.38a.584.584 0 0 1-.66-.66v-1.9a.583.583 0 0 1 .66-.66h1.38a.584.584 0 0 0 .66-.66v-3.463a.583.583 0 0 1 .66-.66h3.321a.584.584 0 0 1 .66.66v3.421a.584.584 0 0 0 .66.66h2.581a.584.584 0 0 1 .66.66V500a.584.584 0 0 1-.66.66h-2.582a.584.584 0 0 0-.66.66v7.422c0 1.52.82 2.321 2.1 2.321h1.1a.583.583 0 0 1 .66.66v2.221a.584.584 0 0 1-.66.66h-2.261z" transform="translate(-1156.882 -489.659)"/>
            <path id="Path_16853" data-name="Path 16853" d="M1344.2 482.121a2.527 2.527 0 0 1-.8-1.881 2.5 2.5 0 0 1 .8-1.881 2.731 2.731 0 0 1 3.781 0 2.584 2.584 0 0 1 .78 1.881 2.7 2.7 0 0 1-2.661 2.681 2.683 2.683 0 0 1-1.9-.8z" transform="translate(-1211.679 -477.58)"/>
            <path id="Path_16854" data-name="Path 16854" d="M1346.06 533.785a.583.583 0 0 1-.66-.66V517.26a.584.584 0 0 1 .66-.66h3.261a.583.583 0 0 1 .66.66v15.865a.583.583 0 0 1-.66.66z" transform="translate(-1213.278 -508.778)"/>
            <path id="Path_16855" data-name="Path 16855" d="M1382.061 502.507a.584.584 0 0 1-.66-.66v-12.363a.583.583 0 0 0-.66-.66h-1.38a.584.584 0 0 1-.66-.66v-1.9a.584.584 0 0 1 .66-.66h1.38a.584.584 0 0 0 .66-.66V483.6c0-4.061 1.861-6.1 5.582-6.1a9.587 9.587 0 0 1 2.381.3.66.66 0 0 1 .56.74v2.181c0 .48-.24.66-.74.58a4.815 4.815 0 0 0-.98-.12c-1.34 0-2.12.78-2.12 2.341v1.4a.577.577 0 0 0 .64.66h2.6a.584.584 0 0 1 .66.66v1.9a.584.584 0 0 1-.66.66h-2.6c-.44 0-.64.22-.64.66v12.364a.584.584 0 0 1-.66.66h-3.361z" transform="translate(-1239.916 -477.5)"/>
        </g>
    </g>
</svg>
